<svg xmlns="http://www.w3.org/2000/svg" version="1.1" xmlns:xlink="http://www.w3.org/1999/xlink" xmlns:svgjs="http://svgjs.dev/svgjs" width="1500" height="397" viewBox="0 0 1500 397"><g transform="matrix(1,0,0,1,-0.9090909090909918,0.6245443781681672)"><svg viewBox="0 0 396 105" data-background-color="#000000" preserveAspectRatio="xMidYMid meet" height="397" width="1500" xmlns="http://www.w3.org/2000/svg" xmlns:xlink="http://www.w3.org/1999/xlink"><g id="tight-bounds" transform="matrix(1,0,0,1,0.2400000000000091,-0.16518176248780492)"><svg viewBox="0 0 395.52 105.33036352497562" height="105.33036352497562" width="395.52"><g><svg viewBox="0 0 510.1499312701396 135.85729599748467" height="105.33036352497562" width="395.52"><g transform="matrix(1,0,0,1,114.6299312701396,36.21740762773149)"><svg viewBox="0 0 395.52 63.42248074202169" height="63.42248074202169" width="395.52"><g id="textblocktransform"><svg viewBox="0 0 395.52 63.42248074202169" height="63.42248074202169" width="395.52" id="textblock"><g><svg viewBox="0 0 395.52 63.42248074202169" height="63.42248074202169" width="395.52"><g transform="matrix(1,0,0,1,0,0)"><svg width="395.52" viewBox="1.34 -39.06 310.57000000000005 49.800000000000004" height="63.42248074202169" data-palette-color="#9800ff"><path d="M22.9-39.06L22.9-39.06Q23.61-38.06 23.61-36 23.61-33.94 23.47-32.65 23.34-31.37 23.07-30.18L23.07-30.18Q22.49-27.49 21.44-26.12L21.44-26.12Q20.53-30.83 19.09-32.86L19.09-32.86Q17.58-34.91 15.15-34.91 12.72-34.91 11.35-33.98 9.99-33.06 9.25-31.54L9.25-31.54Q8.03-29.03 8.03-24.13 8.03-19.24 9.14-15.17 10.25-11.11 12.3-8.18L12.3-8.18Q16.63-1.95 23.56-1.95L23.56-1.95Q23.46-0.85 22.41-0.05L22.41-0.05Q22.09 0.2 21.73 0.24L21.73 0.24Q12.87 0.24 7.28-6.27L7.28-6.27Q1.34-13.21 1.34-25.17L1.34-25.17Q1.34-31.42 5-34.57L5-34.57Q8.25-37.35 13.89-37.35L13.89-37.35 17.97-37.3Q20.85-37.3 22.02-38.13L22.02-38.13Q22.51-38.5 22.9-39.06ZM45.9-13.04L45.9-13.04 45.82-8.35Q45.82-3.98 46.63-2.39L46.63-2.39Q47.12-1.44 47.78-0.93L47.78-0.93 48.92 0 41.84 0 41.09-2.83Q38.33 0.49 33.23 0.49L33.23 0.49Q30.32 0.49 28.54-1.46L28.54-1.46Q26.98-3.22 26.98-5.62 26.98-8.01 28.11-9.79 29.25-11.57 31.1-12.74L31.1-12.74Q34.76-15.01 40.31-15.11L40.31-15.11 40.31-15.38Q40.31-21.31 38.47-22.34L38.47-22.34Q37.81-22.71 36.78-22.71 35.74-22.71 34.71-22.02 33.69-21.34 32.86-20.26L32.86-20.26Q31.2-18.09 30.49-15.14L30.49-15.14Q28.32-16.43 28.32-20.09L28.32-20.09Q28.32-21.58 28.71-23.44L28.71-23.44Q29.64-23.44 30.47-23.71L30.47-23.71 32.35-24.29Q35.1-25.15 37.74-25.15 40.38-25.15 41.95-24.37 43.53-23.58 44.41-22.05L44.41-22.05Q45.9-19.43 45.9-13.04ZM32.25-5.13Q32.25-3.61 32.94-2.78 33.64-1.95 34.69-1.95 35.74-1.95 36.72-2.5 37.69-3.05 38.47-4L38.47-4Q40.31-6.18 40.31-9.11L40.31-9.11 40.31-12.72Q36.89-12.4 34.67-10.45L34.67-10.45Q32.25-8.35 32.25-5.13L32.25-5.13ZM60.42 0L53.41 0Q54.54-3.86 54.54-13.26L54.54-13.26Q54.54-19.95 53.36-22.39L53.36-22.39Q53.07-23 52.7-23.54L52.7-23.54 51.9-24.66 60.37-24.66Q60-23.22 59.88-22.36L59.88-22.36 59.71-20.9Q62.54-25.15 66.93-25.15 71.31-25.15 72.6-20.39L72.6-20.39Q74.53-23.68 77.7-24.76L77.7-24.76Q78.83-25.15 80.23-25.15 81.64-25.15 82.77-24.55 83.91-23.95 84.69-22.85L84.69-22.85Q86.23-20.63 86.23-16.77L86.23-16.77 86.23-14.16Q86.23-6.69 86.43-4.8 86.64-2.91 86.74-2.29L86.74-2.29Q86.88-1.22 87.23 0L87.23 0 80.02 0Q81.1-3.69 81.1-13.26L81.1-13.26Q81.1-17.14 80.71-18.47 80.32-19.8 79.69-20.4 79.07-21 78-21L78-21Q74.85-21 72.99-17.29L72.99-17.29 72.99-14.16Q72.99-6.69 73.2-4.8 73.41-2.91 73.51-2.29L73.51-2.29Q73.65-1.22 73.99 0L73.99 0 66.79 0Q67.89-3.76 67.89-13.26L67.89-13.26Q67.89-17.24 67.5-18.52 67.11-19.8 66.5-20.4 65.89-21 64.83-21 63.76-21 62.91-20.58 62.06-20.17 61.37-19.48L61.37-19.48Q60.08-18.21 59.35-16.21L59.35-16.21Q59.3-15.5 59.3-14.75L59.3-14.75 59.3-13.26Q59.3-3.86 60.42 0L60.42 0ZM72.09-14.7L72.19-15.14 72.09-14.7ZM98.5-23.1L98.5-23.1Q101.24-25.15 105.34-25.15L105.34-25.15Q111.15-25.15 112.93-20.34L112.93-20.34Q113.52-18.75 113.52-16.35 113.52-13.94 112.97-11.66 112.42-9.38 111.44-7.54 110.47-5.71 109.14-4.32 107.81-2.93 106.24-2L106.24-2Q103.12-0.12 99.6-0.02L99.6-0.02Q99.65 1.29 99.75 2.56L99.75 2.56 99.99 5.15Q100.21 7.79 101.51 9.62L101.51 9.62 102.34 10.74 93.43 10.74Q94.11 8.4 94.22 6.05 94.33 3.71 94.39 2.04 94.45 0.37 94.47-1.42L94.47-1.42Q94.57-5.57 94.57-8.69L94.57-8.69Q94.57-18.75 93.94-21L93.94-21Q93.55-22.39 92.94-23.22L92.94-23.22 91.91-24.66 98.48-24.66Q98.33-24.17 98.5-23.1ZM107.41-15.7L107.41-15.7Q107.41-22.71 103.87-22.71L103.87-22.71Q102.12-22.71 100.94-21.14L100.94-21.14Q99.68-19.46 99.68-16.53L99.68-16.53 99.5-4.96 99.5-3.61Q99.5-2.95 99.53-2.27L99.53-2.27Q103.07-2.81 105.27-6.52L105.27-6.52Q107.41-10.18 107.41-15.7ZM138.88-23.54L138.88-22.36 138.52-11.45Q138.52-4.79 139.69-2.29L139.69-2.29Q140.1-1.39 141.15 0L141.15 0 134.37 0Q133.8-1.66 133.63-4.2L133.63-4.2Q130.8 0.49 126.33 0.49L126.33 0.49Q123.26 0.49 121.62-1.81L121.62-1.81Q120.01-4.03 120.01-7.91L120.01-7.91 120.01-11.21Q120.01-12.3 120.01-13.45L120.01-13.45 119.96-15.67Q119.94-17.8 119.83-18.98 119.72-20.17 119.58-20.96 119.45-21.75 119.25-22.38 119.06-23 118.81-23.54L118.81-23.54 118.28-24.66 125.33-24.66Q125.36-24.27 125.36-23.93L125.36-23.93 125.36-23.22Q125.36-23.22 124.94-10.96L124.94-10.96Q124.94-7.37 125.41-6.08 125.87-4.79 126.52-4.22 127.16-3.66 128.24-3.66L128.24-3.66Q131.14-3.66 132.95-6.84L132.95-6.84Q133.44-7.74 133.75-8.67L133.75-8.67Q133.8-10.03 133.8-11.77L133.8-11.77Q133.8-20.68 132.49-23.54L132.49-23.54 131.95-24.66 138.91-24.66Q138.88-24.05 138.88-23.54L138.88-23.54ZM161.41-26.1L161.41-26.1Q162.07-24.63 162.07-23.14 162.07-21.66 161.94-20.68 161.8-19.7 161.54-18.8L161.54-18.8Q160.93-16.75 159.8-15.65L159.8-15.65Q159.05-19.43 158.15-20.56 157.26-21.68 156.37-22.07 155.48-22.46 154.48-22.46 153.48-22.46 152.84-22.27 152.21-22.07 151.75-21.7L151.75-21.7Q150.7-20.9 150.7-19.87 150.7-18.85 151.21-18.1 151.72-17.36 152.56-16.71 153.41-16.06 154.48-15.45L154.48-15.45 156.68-14.21Q159.51-12.62 160.56-11.57L160.56-11.57Q162.63-9.5 162.63-7.2L162.63-7.2Q162.63-4.2 160.58-2.15L160.58-2.15Q158 0.49 152.82 0.49L152.82 0.49Q148.11 0.49 145.74-1.71L145.74-1.71Q145.06-2.34 144.76-2.98L144.76-2.98Q144.96-4.81 146.4-6.42L146.4-6.42Q147.79-7.98 149.11-8.23L149.11-8.23Q149.01-7.91 149.01-7.28 149.01-6.64 149.38-5.7 149.74-4.76 150.43-3.96L150.43-3.96Q151.97-2.1 153.89-2.1 155.82-2.1 156.73-2.98 157.63-3.86 157.63-4.98 157.63-6.1 157.12-6.86 156.6-7.62 155.76-8.28 154.92-8.94 153.84-9.55L153.84-9.55 151.65-10.79Q148.84-12.45 147.79-13.62L147.79-13.62Q145.69-15.97 145.69-18.73L145.69-18.73Q145.69-21.63 148.13-23.44L148.13-23.44Q150.45-25.15 153.92-25.15L153.92-25.15 158.22-24.85Q159.78-24.85 160.39-25.23 161-25.61 161.41-26.1ZM188.32-39.06L188.32-39.06Q189.02-38.06 189.02-36 189.02-33.94 188.89-32.65 188.75-31.37 188.49-30.18L188.49-30.18Q187.9-27.49 186.85-26.12L186.85-26.12Q185.95-30.83 184.51-32.86L184.51-32.86Q182.99-34.91 180.56-34.91 178.13-34.91 176.77-33.98 175.4-33.06 174.67-31.54L174.67-31.54Q173.45-29.03 173.45-24.13 173.45-19.24 174.56-15.17 175.67-11.11 177.72-8.18L177.72-8.18Q182.04-1.95 188.97-1.95L188.97-1.95Q188.88-0.85 187.83-0.05L187.83-0.05Q187.51 0.2 187.14 0.24L187.14 0.24Q178.28 0.24 172.69-6.27L172.69-6.27Q166.76-13.21 166.76-25.17L166.76-25.17Q166.76-31.42 170.42-34.57L170.42-34.57Q173.67-37.35 179.31-37.35L179.31-37.35 183.38-37.3Q186.26-37.3 187.44-38.13L187.44-38.13Q187.92-38.5 188.32-39.06ZM211.31-13.04L211.31-13.04 211.24-8.35Q211.24-3.98 212.04-2.39L212.04-2.39Q212.53-1.44 213.19-0.93L213.19-0.93 214.34 0 207.26 0 206.5-2.83Q203.74 0.49 198.64 0.49L198.64 0.49Q195.73 0.49 193.95-1.46L193.95-1.46Q192.39-3.22 192.39-5.62 192.39-8.01 193.52-9.79 194.66-11.57 196.52-12.74L196.52-12.74Q200.18-15.01 205.72-15.11L205.72-15.11 205.72-15.38Q205.72-21.31 203.89-22.34L203.89-22.34Q203.23-22.71 202.19-22.71 201.15-22.71 200.13-22.02 199.1-21.34 198.27-20.26L198.27-20.26Q196.61-18.09 195.91-15.14L195.91-15.14Q193.73-16.43 193.73-20.09L193.73-20.09Q193.73-21.58 194.12-23.44L194.12-23.44Q195.05-23.44 195.88-23.71L195.88-23.71 197.76-24.29Q200.52-25.15 203.16-25.15 205.79-25.15 207.37-24.37 208.94-23.58 209.82-22.05L209.82-22.05Q211.31-19.43 211.31-13.04ZM197.66-5.13Q197.66-3.61 198.36-2.78 199.05-1.95 200.1-1.95 201.15-1.95 202.13-2.5 203.11-3.05 203.89-4L203.89-4Q205.72-6.18 205.72-9.11L205.72-9.11 205.72-12.72Q202.3-12.4 200.08-10.45L200.08-10.45Q197.66-8.35 197.66-5.13L197.66-5.13ZM225.22 0L218.22 0Q219.34-3.86 219.34-13.26L219.34-13.26Q219.34-19.95 218.17-22.39L218.17-22.39Q217.88-23 217.51-23.54L217.51-23.54 216.7-24.66 225.18-24.66Q224.81-23.44 224.69-22.36L224.69-22.36 224.49-20.61Q227.45-25.15 232.01-25.15L232.01-25.15Q234.97-25.15 236.63-22.85L236.63-22.85Q238.24-20.61 238.24-16.77L238.24-16.77 238.24-14.16Q238.24-7.45 238.36-5.96 238.48-4.47 238.55-3.69 238.63-2.91 238.73-2.29L238.73-2.29Q238.9-1.15 239.24 0L239.24 0 232.08 0Q233.21-3.86 233.21-13.26L233.21-13.26Q233.21-17.02 232.73-18.41 232.26-19.8 231.6-20.4 230.94-21 229.86-21L229.86-21Q227.89-21 226.27-19.43L226.27-19.43Q224.88-18.09 224.15-16.02L224.15-16.02Q224.1-15.36 224.1-14.65L224.1-14.65 224.1-13.26Q224.1-3.86 225.22 0L225.22 0ZM242.21-24.66L251.22-24.66Q250.78-23.58 250.78-22.3 250.78-21.02 250.98-20.03 251.17-19.04 251.52-17.72L251.52-17.72 254.15-8.35 255.08-5.35Q256.52-9.67 256.98-11.18L256.98-11.18 257.86-14.16Q259.3-19.07 259.3-20.24 259.3-21.41 259.19-21.96 259.08-22.51 258.89-22.95L258.89-22.95Q258.64-23.61 257.94-24.66L257.94-24.66 266.82-24.66Q265.02-22.17 264.41-20.92L264.41-20.92 263.5-19.07Q263.28-18.63 262.89-17.8L262.89-17.8Q258.11-6.88 258.11-3.17L258.11-3.17Q258.11-1.49 258.74 0L258.74 0 249.95 0Q250.54-0.93 250.65-1.75 250.76-2.56 250.76-3.43 250.76-4.3 250.32-5.93 249.88-7.57 249.17-9.64 248.46-11.72 247.55-14.03 246.63-16.33 245.68-18.43L245.68-18.43Q243.53-23.14 242.21-24.66L242.21-24.66ZM288.7-13.04L288.7-13.04 288.62-8.35Q288.62-3.98 289.43-2.39L289.43-2.39Q289.92-1.44 290.58-0.93L290.58-0.93 291.72 0 284.64 0 283.89-2.83Q281.13 0.49 276.02 0.49L276.02 0.49Q273.12 0.49 271.34-1.46L271.34-1.46Q269.77-3.22 269.77-5.62 269.77-8.01 270.91-9.79 272.05-11.57 273.9-12.74L273.9-12.74Q277.56-15.01 283.1-15.11L283.1-15.11 283.1-15.38Q283.1-21.31 281.27-22.34L281.27-22.34Q280.61-22.71 279.58-22.71 278.54-22.71 277.51-22.02 276.49-21.34 275.66-20.26L275.66-20.26Q274-18.09 273.29-15.14L273.29-15.14Q271.12-16.43 271.12-20.09L271.12-20.09Q271.12-21.58 271.51-23.44L271.51-23.44Q272.44-23.44 273.27-23.71L273.27-23.71 275.15-24.29Q277.9-25.15 280.54-25.15 283.18-25.15 284.75-24.37 286.33-23.58 287.21-22.05L287.21-22.05Q288.7-19.43 288.7-13.04ZM275.05-5.13Q275.05-3.61 275.74-2.78 276.44-1.95 277.49-1.95 278.54-1.95 279.52-2.5 280.49-3.05 281.27-4L281.27-4Q283.1-6.18 283.1-9.11L283.1-9.11 283.1-12.72Q279.69-12.4 277.47-10.45L277.47-10.45Q275.05-8.35 275.05-5.13L275.05-5.13ZM310.69-26.1L310.69-26.1Q311.35-24.63 311.35-23.14 311.35-21.66 311.22-20.68 311.08-19.7 310.81-18.8L310.81-18.8Q310.2-16.75 309.08-15.65L309.08-15.65Q308.32-19.43 307.43-20.56 306.54-21.68 305.65-22.07 304.76-22.46 303.76-22.46 302.76-22.46 302.12-22.27 301.49-22.07 301.02-21.7L301.02-21.7Q299.97-20.9 299.97-19.87 299.97-18.85 300.49-18.1 301-17.36 301.84-16.71 302.68-16.06 303.76-15.45L303.76-15.45 305.95-14.21Q308.79-12.62 309.84-11.57L309.84-11.57Q311.91-9.5 311.91-7.2L311.91-7.2Q311.91-4.2 309.86-2.15L309.86-2.15Q307.27 0.49 302.1 0.49L302.1 0.49Q297.38 0.49 295.02-1.71L295.02-1.71Q294.33-2.34 294.04-2.98L294.04-2.98Q294.24-4.81 295.68-6.42L295.68-6.42Q297.07-7.98 298.39-8.23L298.39-8.23Q298.29-7.91 298.29-7.28 298.29-6.64 298.65-5.7 299.02-4.76 299.7-3.96L299.7-3.96Q301.24-2.1 303.17-2.1 305.1-2.1 306-2.98 306.91-3.86 306.91-4.98 306.91-6.1 306.39-6.86 305.88-7.62 305.04-8.28 304.2-8.94 303.12-9.55L303.12-9.55 300.92-10.79Q298.12-12.45 297.07-13.62L297.07-13.62Q294.97-15.97 294.97-18.73L294.97-18.73Q294.97-21.63 297.41-23.44L297.41-23.44Q299.73-25.15 303.2-25.15L303.2-25.15 307.49-24.85Q309.05-24.85 309.66-25.23 310.28-25.61 310.69-26.1Z" opacity="1" transform="matrix(1,0,0,1,0,0)" fill="#9800ff" class="wordmark-text-0" data-fill-palette-color="primary" id="text-0"></path></svg></g></svg></g></svg></g></svg></g><g><svg viewBox="0 0 99.65740570648607 135.85729599748467" height="135.85729599748467" width="99.65740570648607"><g><svg xmlns="http://www.w3.org/2000/svg" xmlns:xlink="http://www.w3.org/1999/xlink" version="1.1" x="0" y="0" viewBox="18.253 7.2325 63.49600000000001 86.5605" enable-background="new 0 0 100 100" xml:space="preserve" height="135.85729599748467" width="99.65740570648607" class="icon-icon-0" data-fill-palette-color="accent" id="icon-0"><g fill="#0cba01" data-fill-palette-color="accent"><path fill="none" d="M60.126 28.288c-0.035-0.016-0.07-0.029-0.109-0.035-0.149-0.026-0.305 0.029-0.458 0.148l-0.007 0.011c0-0.002-0.002-0.002-0.002-0.003-0.002 0.001-0.003 0.003-0.005 0.003 0-0.01 0-0.019-0.002-0.028-0.579-2.203-1.312-3.551-2.064-4.354-0.146-0.079-0.299-0.15-0.466-0.198-0.019 0.324 0.352 0.817 0.39 1.299-1.047-0.488-2.046-1.245-3.508-1.299-0.341-0.012-0.71-0.01-1.088-0.001-0.513 0.183-1.031 0.304-1.546 0.386-1.025 0.382-1.435 0.417-2.326 0.115-2.007-0.107-3.531-0.667-3.531-0.667-4.42-0.409-5.121 4.183-5.175 4.709 0 0.013-0.001 0.025-0.001 0.038-0.001 0-0.001 0-0.002 0-0.156-0.125-0.317-0.186-0.471-0.158-0.066 0.01-0.13 0.04-0.188 0.081-0.138 0.099-0.246 0.284-0.326 0.522-0.043 0.617-0.072 1.243-0.08 1.889 0.008 0.06 0.014 0.117 0.026 0.178 0.164 0.922 0.511 1.69 0.89 2.07 0.188 0.188 0.383 0.28 0.569 0.248 0.091-0.015 0.17-0.06 0.245-0.128 0.907 2.817 2.642 5.624 4.832 7.3 1.262 0.966 2.674 1.556 4.165 1.556 1.523 0 2.964-0.617 4.247-1.621 2.149-1.682 3.854-4.454 4.748-7.236 0.074 0.068 0.154 0.113 0.244 0.128 0.161 0.028 0.328-0.036 0.491-0.174 0.41-0.348 0.795-1.158 0.971-2.144C60.816 29.639 60.61 28.514 60.126 28.288z"></path><path fill="none" d="M27.663 89.923h44.675c1.666 0 3.017-1.335 3.017-2.98l6.09-27.804c0-1.646-1.351-2.98-3.016-2.98h-3.612-1.662-8.076H54.339h-2.966-3.199-2.86H25.172h-3.601c-1.666 0-3.017 1.334-3.016 2.98l6.091 27.804C24.647 88.588 25.998 89.923 27.663 89.923zM50 71.689c0.895 0 1.619 0.725 1.619 1.618 0 0.895-0.725 1.619-1.619 1.619-0.894 0-1.619-0.725-1.619-1.619C48.381 72.414 49.106 71.689 50 71.689z"></path><path d="M48.208 55.664h3.13 3.357 10.617 7.604 1.829c-0.032-0.16-0.069-0.322-0.115-0.481-2.818-9.695-8.024-10.028-9.146-10.29-2.206-0.518-4.878-0.297-6.304-0.742-0.249 2.087-4.266 3.746-9.187 3.746-4.919 0-8.937-1.659-9.188-3.746-1.425 0.445-4.097 0.224-6.304 0.742-1.121 0.261-6.327 0.595-9.146 10.29-0.046 0.159-0.084 0.321-0.115 0.481h19.743H48.208z" fill="#0cba01" data-fill-palette-color="accent"></path><circle cx="50" cy="73.308" r="1.6" fill="#0cba01" data-fill-palette-color="accent"></circle><path d="M75.377 91.186H24.625c-0.715 0-1.293 0.584-1.293 1.304 0 0.718 0.578 1.303 1.293 1.303h50.752c0.714 0 1.292-0.583 1.292-1.303S76.089 91.186 75.377 91.186z" fill="#0cba01" data-fill-palette-color="accent"></path><path d="M27.388 90.416h45.226c1.681 0 3.045-1.362 3.045-3.045l6.09-28.66c0-1.682-1.363-3.045-3.045-3.045h-3.957-1.828-7.604H54.695h-3.357-3.129-0.001-3.222H25.243h-3.945c-1.682 0-3.045 1.362-3.045 3.045l6.09 28.66C24.341 89.054 25.705 90.416 27.388 90.416zM21.572 56.158h3.601 20.142 2.86 3.199 2.966 10.739 8.076 1.662 3.612c1.665 0 3.016 1.335 3.016 2.98l-6.09 27.804c0 1.646-1.351 2.98-3.017 2.98H27.663c-1.666 0-3.016-1.335-3.016-2.98l-6.091-27.804C18.555 57.492 19.906 56.158 21.572 56.158z" fill="#0cba01" data-fill-palette-color="accent"></path><path d="M36.146 14.667l-0.069 0.958c-0.373 0.063-0.657 0.387-0.657 0.778 0 0.352 0.23 0.649 0.547 0.75l-0.636 8.896 0.877 2.631 0.877-2.631-0.635-8.896c0.317-0.103 0.547-0.399 0.547-0.75 0-0.391-0.284-0.714-0.656-0.778l-0.063-0.882 1.519 0.881 0.063 0.035 1.205 0.699-0.329 4.201 0.233 0.086c-0.339 0.995-0.559 2.108-0.658 3.295-0.217 0.887-0.344 1.808-0.344 2.759h0.021c0 0.009-0.002 0.016-0.002 0.023-0.014 0.002-0.027 0.002-0.041 0.005-0.825 0.144-1.202 1.903-0.837 3.93 0.331 1.863 1.171 3.302 1.945 3.411 0.986 2.652 2.547 5.228 4.477 7.113 1.092 1.065 2.301 1.91 3.593 2.423 0.887 0.351 1.812 0.546 2.764 0.546 0.951 0 1.877-0.195 2.764-0.546 1.336-0.53 2.584-1.417 3.707-2.536 1.883-1.878 3.404-4.415 4.369-7.022 0.744-0.218 1.523-1.61 1.84-3.388 0.347-1.931 0.019-3.614-0.725-3.895 0.025-0.471 0.044-0.947 0.044-1.434-0.007-2.53-0.555-4.67-1.548-6.401l-0.216-2.178 1.29-0.747 0.655-0.378 2.737-1.585c0.171-0.171 0.171-0.448 0-0.62L50.242 7.36c-0.17-0.17-0.449-0.17-0.617 0l-14.564 6.06c-0.171 0.171-0.171 0.448 0 0.62L36.146 14.667zM60.588 30.923c-0.176 0.986-0.561 1.796-0.971 2.144-0.163 0.138-0.33 0.203-0.491 0.174-0.09-0.015-0.17-0.06-0.244-0.128-0.895 2.782-2.599 5.554-4.748 7.236-1.283 1.004-2.724 1.621-4.247 1.621-1.491 0-2.903-0.59-4.165-1.556-2.189-1.676-3.925-4.482-4.832-7.3-0.074 0.069-0.154 0.113-0.245 0.128-0.187 0.032-0.382-0.061-0.569-0.248-0.379-0.38-0.726-1.148-0.89-2.07-0.012-0.061-0.018-0.118-0.026-0.178 0.007-0.646 0.037-1.272 0.08-1.889 0.081-0.238 0.188-0.424 0.326-0.522 0.058-0.042 0.121-0.071 0.188-0.081 0.154-0.027 0.314 0.033 0.471 0.158 0.001 0 0.001 0 0.002 0 0-0.013 0.001-0.025 0.001-0.038 0.054-0.526 0.755-5.118 5.175-4.709 0 0 1.524 0.56 3.531 0.667 0.892 0.302 1.301 0.267 2.326-0.115 0.515-0.082 1.033-0.203 1.546-0.386 0.378-0.008 0.747-0.011 1.088 0.001 1.462 0.055 2.461 0.811 3.508 1.299-0.038-0.482-0.408-0.976-0.39-1.299 0.167 0.048 0.319 0.119 0.466 0.198 0.753 0.803 1.485 2.151 2.064 4.354 0.002 0.009 0.002 0.018 0.002 0.028 0.002 0 0.003-0.002 0.005-0.003 0 0.001 0.002 0.001 0.002 0.003l0.007-0.011c0.153-0.12 0.309-0.175 0.458-0.148 0.039 0.006 0.074 0.019 0.109 0.035C60.61 28.514 60.816 29.639 60.588 30.923z" fill="#0cba01" data-fill-palette-color="accent"></path></g></svg></g></svg></g></svg></g><defs></defs></svg><rect width="395.52" height="105.33036352497562" fill="none" stroke="none" visibility="hidden"></rect></g></svg></g></svg>